<?xml version="1.0" encoding="UTF-8" standalone="no"?>
<!DOCTYPE svg PUBLIC "-//W3C//DTD SVG 1.1//EN"
 "http://www.w3.org/Graphics/SVG/1.1/DTD/svg11.dtd">
<!-- Generated by graphviz version 2.40.1 (20161225.0304)
 -->
<!-- Title: dependencies Pages: 1 -->
<svg width="504pt" height="284pt"
 viewBox="0.00 0.00 504.00 284.00" xmlns="http://www.w3.org/2000/svg" xmlns:xlink="http://www.w3.org/1999/xlink">
<g id="graph0" class="graph" transform="scale(1 1) rotate(0) translate(4 280)">
<title>dependencies</title>
<polygon fill="#ffffff" stroke="transparent" points="-4,4 -4,-280 500,-280 500,4 -4,4"/>
<text text-anchor="start" x="227.0091" y="-42.4" font-family="sans-serif" font-weight="bold" font-size="14.00" fill="#000000">Legend</text>
<polygon fill="#ffffb3" stroke="transparent" points="14,-10 14,-30 34,-30 34,-10 14,-10"/>
<text text-anchor="start" x="37.629" y="-15.4" font-family="sans-serif" font-size="14.00" fill="#000000"> &#160;Declarations</text>
<polygon fill="#8dd3c7" stroke="transparent" points="127,-10 127,-30 147,-30 147,-10 127,-10"/>
<text text-anchor="start" x="150.7251" y="-15.4" font-family="sans-serif" font-size="14.00" fill="#000000"> &#160;Module</text>
<polygon fill="#80b1d3" stroke="transparent" points="213,-10 213,-30 233,-30 233,-10 213,-10"/>
<text text-anchor="start" x="236.7812" y="-15.4" font-family="sans-serif" font-size="14.00" fill="#000000"> &#160;Bootstrap</text>
<polygon fill="#fdb462" stroke="transparent" points="310,-10 310,-30 330,-30 330,-10 310,-10"/>
<text text-anchor="start" x="333.6732" y="-15.4" font-family="sans-serif" font-size="14.00" fill="#000000"> &#160;Providers</text>
<polygon fill="#fb8072" stroke="transparent" points="406,-10 406,-30 426,-30 426,-10 406,-10"/>
<text text-anchor="start" x="429.7258" y="-15.4" font-family="sans-serif" font-size="14.00" fill="#000000"> &#160;Exports</text>
<g id="clust1" class="cluster">
<title>cluster_AppModule</title>
<polygon fill="none" stroke="#000000" stroke-dasharray="1,5" points="63,-70 63,-268 289,-268 289,-70 63,-70"/>
</g>
<g id="clust2" class="cluster">
<title>cluster_AppModule_declarations</title>
<polygon fill="none" stroke="#000000" points="71,-78 71,-130 281,-130 281,-78 71,-78"/>
</g>
<g id="clust7" class="cluster">
<title>cluster_AppModule_bootstrap</title>
<polygon fill="none" stroke="#000000" points="157,-208 157,-260 281,-260 281,-208 157,-208"/>
</g>
<g id="clust9" class="cluster">
<title>cluster_AppServerModule</title>
<polygon fill="none" stroke="#000000" stroke-dasharray="1,5" points="297,-208 297,-260 433,-260 433,-208 297,-208"/>
</g>
<!-- AppComponent -->
<g id="node1" class="node">
<title>AppComponent</title>
<polygon fill="#ffffb3" stroke="#000000" points="272.9399,-122 167.0601,-122 167.0601,-86 272.9399,-86 272.9399,-122"/>
<text text-anchor="middle" x="220" y="-99.8" font-family="Times,serif" font-size="14.00" fill="#000000">AppComponent</text>
</g>
<!-- AppModule -->
<g id="node3" class="node">
<title>AppModule</title>
<polygon fill="#8dd3c7" stroke="#000000" points="260.6571,-187 257.6571,-191 236.6571,-191 233.6571,-187 177.3429,-187 177.3429,-151 260.6571,-151 260.6571,-187"/>
<text text-anchor="middle" x="219" y="-164.8" font-family="Times,serif" font-size="14.00" fill="#000000">AppModule</text>
</g>
<!-- AppComponent&#45;&gt;AppModule -->
<g id="edge1" class="edge">
<title>AppComponent&#45;&gt;AppModule</title>
<path fill="none" stroke="#000000" d="M219,-122.1061C219,-122.1061 219,-140.991 219,-140.991"/>
<polygon fill="#000000" stroke="#000000" points="215.5001,-140.9909 219,-150.991 222.5001,-140.991 215.5001,-140.9909"/>
</g>
<!-- KeysPipe -->
<g id="node2" class="node">
<title>KeysPipe</title>
<polygon fill="#ffffb3" stroke="#000000" points="148.6545,-122 79.3455,-122 79.3455,-86 148.6545,-86 148.6545,-122"/>
<text text-anchor="middle" x="114" y="-99.8" font-family="Times,serif" font-size="14.00" fill="#000000">KeysPipe</text>
</g>
<!-- KeysPipe&#45;&gt;AppModule -->
<g id="edge2" class="edge">
<title>KeysPipe&#45;&gt;AppModule</title>
<path fill="none" stroke="#000000" d="M114,-122.1061C114,-141.3391 114,-169 114,-169 114,-169 167.1995,-169 167.1995,-169"/>
<polygon fill="#000000" stroke="#000000" points="167.1996,-172.5001 177.1995,-169 167.1995,-165.5001 167.1996,-172.5001"/>
</g>
<!-- AppComponent  -->
<g id="node4" class="node">
<title>AppComponent </title>
<polygon fill="#80b1d3" stroke="#000000" points="273.439,-252 164.561,-252 164.561,-216 273.439,-216 273.439,-252"/>
<text text-anchor="middle" x="219" y="-229.8" font-family="Times,serif" font-size="14.00" fill="#000000">AppComponent </text>
</g>
<!-- AppModule&#45;&gt;AppComponent  -->
<g id="edge3" class="edge">
<title>AppModule&#45;&gt;AppComponent </title>
<path fill="none" stroke="#000000" stroke-dasharray="1,5" d="M219,-187.1061C219,-187.1061 219,-205.991 219,-205.991"/>
<polygon fill="#000000" stroke="#000000" points="215.5001,-205.9909 219,-215.991 222.5001,-205.991 215.5001,-205.9909"/>
</g>
<!-- AppServerModule -->
<g id="node5" class="node">
<title>AppServerModule</title>
<polygon fill="#8dd3c7" stroke="#000000" points="425.1895,-252 422.1895,-256 401.1895,-256 398.1895,-252 304.8105,-252 304.8105,-216 425.1895,-216 425.1895,-252"/>
<text text-anchor="middle" x="365" y="-229.8" font-family="Times,serif" font-size="14.00" fill="#000000">AppServerModule</text>
</g>
<!-- AppModule&#45;&gt;AppServerModule -->
<g id="edge4" class="edge">
<title>AppModule&#45;&gt;AppServerModule</title>
<path fill="none" stroke="#000000" d="M260.8377,-169C303.9805,-169 365,-169 365,-169 365,-169 365,-205.8939 365,-205.8939"/>
<polygon fill="#000000" stroke="#000000" points="361.5001,-205.8938 365,-215.8939 368.5001,-205.8939 361.5001,-205.8938"/>
</g>
<!-- AppServerModule&#45;&gt;AppComponent  -->
<g id="edge5" class="edge">
<title>AppServerModule&#45;&gt;AppComponent </title>
<path fill="none" stroke="#000000" stroke-dasharray="1,5" d="M304.7733,-234C304.7733,-234 283.4753,-234 283.4753,-234"/>
<polygon fill="#000000" stroke="#000000" points="283.4753,-230.5001 273.4753,-234 283.4753,-237.5001 283.4753,-230.5001"/>
</g>
</g>
</svg>
