<?xml version="1.0" encoding="UTF-8" standalone="no"?>
<!DOCTYPE svg PUBLIC "-//W3C//DTD SVG 1.1//EN"
 "http://www.w3.org/Graphics/SVG/1.1/DTD/svg11.dtd">
<!-- Generated by graphviz version 2.47.0 (20210316.0004)
 -->
<!-- Title: dependencies Pages: 1 -->
<svg width="841pt" height="284pt"
 viewBox="0.00 0.00 841.00 284.00" xmlns="http://www.w3.org/2000/svg" xmlns:xlink="http://www.w3.org/1999/xlink">
<g id="graph0" class="graph" transform="scale(1 1) rotate(0) translate(4 280)">
<title>dependencies</title>
<polygon fill="white" stroke="transparent" points="-4,4 -4,-280 837,-280 837,4 -4,4"/>
<text text-anchor="start" x="395.51" y="-42.4" font-family="Times-12" font-weight="bold" font-size="14.00">Legend</text>
<polygon fill="#ffffb3" stroke="transparent" points="182.5,-10 182.5,-30 202.5,-30 202.5,-10 182.5,-10"/>
<text text-anchor="start" x="206.13" y="-15.4" font-family="Times-12" font-size="14.00"> &#160;Declarations</text>
<polygon fill="#8dd3c7" stroke="transparent" points="295.5,-10 295.5,-30 315.5,-30 315.5,-10 295.5,-10"/>
<text text-anchor="start" x="319.23" y="-15.4" font-family="Times-12" font-size="14.00"> &#160;Module</text>
<polygon fill="#80b1d3" stroke="transparent" points="381.5,-10 381.5,-30 401.5,-30 401.5,-10 381.5,-10"/>
<text text-anchor="start" x="405.28" y="-15.4" font-family="Times-12" font-size="14.00"> &#160;Bootstrap</text>
<polygon fill="#fdb462" stroke="transparent" points="478.5,-10 478.5,-30 498.5,-30 498.5,-10 478.5,-10"/>
<text text-anchor="start" x="502.17" y="-15.4" font-family="Times-12" font-size="14.00"> &#160;Providers</text>
<polygon fill="#fb8072" stroke="transparent" points="574.5,-10 574.5,-30 594.5,-30 594.5,-10 574.5,-10"/>
<text text-anchor="start" x="598.23" y="-15.4" font-family="Times-12" font-size="14.00"> &#160;Exports</text>
<g id="clust1" class="cluster">
<title>cluster_TemplatePlaygroundModule</title>
<polygon fill="none" stroke="black" stroke-dasharray="1,5" points="8,-70 8,-268 825,-268 825,-70 8,-70"/>
</g>
<g id="clust2" class="cluster">
<title>cluster_TemplatePlaygroundModule_declarations</title>
<polygon fill="none" stroke="black" points="603,-78 603,-130 817,-130 817,-78 603,-78"/>
</g>
<g id="clust6" class="cluster">
<title>cluster_TemplatePlaygroundModule_bootstrap</title>
<polygon fill="none" stroke="black" points="294,-208 294,-260 512,-260 512,-208 294,-208"/>
</g>
<g id="clust7" class="cluster">
<title>cluster_TemplatePlaygroundModule_providers</title>
<polygon fill="none" stroke="black" points="16,-78 16,-130 595,-130 595,-78 16,-78"/>
</g>
<!-- TemplatePlaygroundComponent -->
<g id="node1" class="node">
<title>TemplatePlaygroundComponent</title>
<polygon fill="#ffffb3" stroke="black" points="809.25,-122 610.75,-122 610.75,-86 809.25,-86 809.25,-122"/>
<text text-anchor="middle" x="710" y="-99.8" font-family="Times,serif" font-size="14.00">TemplatePlaygroundComponent</text>
</g>
<!-- TemplatePlaygroundModule -->
<g id="node2" class="node">
<title>TemplatePlaygroundModule</title>
<polygon fill="#8dd3c7" stroke="black" points="491.47,-187 488.47,-191 467.47,-191 464.47,-187 314.53,-187 314.53,-151 491.47,-151 491.47,-187"/>
<text text-anchor="middle" x="403" y="-164.8" font-family="Times,serif" font-size="14.00">TemplatePlaygroundModule</text>
</g>
<!-- TemplatePlaygroundComponent&#45;&gt;TemplatePlaygroundModule -->
<g id="edge1" class="edge">
<title>TemplatePlaygroundComponent&#45;&gt;TemplatePlaygroundModule</title>
<path fill="none" stroke="black" d="M710,-122.11C710,-141.34 710,-169 710,-169 710,-169 501.8,-169 501.8,-169"/>
<polygon fill="black" stroke="black" points="501.8,-165.5 491.8,-169 501.8,-172.5 501.8,-165.5"/>
</g>
<!-- TemplatePlaygroundComponent  -->
<g id="node3" class="node">
<title>TemplatePlaygroundComponent </title>
<polygon fill="#80b1d3" stroke="black" points="504.25,-252 301.75,-252 301.75,-216 504.25,-216 504.25,-252"/>
<text text-anchor="middle" x="403" y="-229.8" font-family="Times,serif" font-size="14.00">TemplatePlaygroundComponent </text>
</g>
<!-- TemplatePlaygroundModule&#45;&gt;TemplatePlaygroundComponent  -->
<g id="edge2" class="edge">
<title>TemplatePlaygroundModule&#45;&gt;TemplatePlaygroundComponent </title>
<path fill="none" stroke="black" stroke-dasharray="1,5" d="M403,-187.11C403,-187.11 403,-205.99 403,-205.99"/>
<polygon fill="black" stroke="black" points="399.5,-205.99 403,-215.99 406.5,-205.99 399.5,-205.99"/>
</g>
<!-- HbsRenderService -->
<g id="node4" class="node">
<title>HbsRenderService</title>
<ellipse fill="#fdb462" stroke="black" cx="504" cy="-104" rx="83.37" ry="18"/>
<text text-anchor="middle" x="504" y="-99.8" font-family="Times,serif" font-size="14.00">HbsRenderService</text>
</g>
<!-- HbsRenderService&#45;&gt;TemplatePlaygroundModule -->
<g id="edge3" class="edge">
<title>HbsRenderService&#45;&gt;TemplatePlaygroundModule</title>
<path fill="none" stroke="black" d="M456.03,-118.75C456.03,-118.75 456.03,-140.59 456.03,-140.59"/>
<polygon fill="black" stroke="black" points="452.53,-140.59 456.03,-150.59 459.53,-140.59 452.53,-140.59"/>
</g>
<!-- TemplateEditorService -->
<g id="node5" class="node">
<title>TemplateEditorService</title>
<ellipse fill="#fdb462" stroke="black" cx="302" cy="-104" rx="100.7" ry="18"/>
<text text-anchor="middle" x="302" y="-99.8" font-family="Times,serif" font-size="14.00">TemplateEditorService</text>
</g>
<!-- TemplateEditorService&#45;&gt;TemplatePlaygroundModule -->
<g id="edge4" class="edge">
<title>TemplateEditorService&#45;&gt;TemplatePlaygroundModule</title>
<path fill="none" stroke="black" d="M358.56,-119.08C358.56,-119.08 358.56,-140.76 358.56,-140.76"/>
<polygon fill="black" stroke="black" points="355.06,-140.76 358.56,-150.76 362.06,-140.76 355.06,-140.76"/>
</g>
<!-- ZipExportService -->
<g id="node6" class="node">
<title>ZipExportService</title>
<ellipse fill="#fdb462" stroke="black" cx="104" cy="-104" rx="79.87" ry="18"/>
<text text-anchor="middle" x="104" y="-99.8" font-family="Times,serif" font-size="14.00">ZipExportService</text>
</g>
<!-- ZipExportService&#45;&gt;TemplatePlaygroundModule -->
<g id="edge5" class="edge">
<title>ZipExportService&#45;&gt;TemplatePlaygroundModule</title>
<path fill="none" stroke="black" d="M104,-122.11C104,-141.34 104,-169 104,-169 104,-169 304.5,-169 304.5,-169"/>
<polygon fill="black" stroke="black" points="304.5,-172.5 314.5,-169 304.5,-165.5 304.5,-172.5"/>
</g>
</g>
</svg>
