<?xml version="1.0" encoding="UTF-8" standalone="no"?>
<!DOCTYPE svg PUBLIC "-//W3C//DTD SVG 1.1//EN"
 "http://www.w3.org/Graphics/SVG/1.1/DTD/svg11.dtd">
<!-- Generated by graphviz version 2.40.1 (20161225.0304)
 -->
<!-- Title: dependencies Pages: 1 -->
<svg width="504pt" height="360pt"
 viewBox="0.00 0.00 504.00 360.00" xmlns="http://www.w3.org/2000/svg" xmlns:xlink="http://www.w3.org/1999/xlink">
<g id="graph0" class="graph" transform="scale(1 1) rotate(0) translate(4 356)">
<title>dependencies</title>
<polygon fill="#ffffff" stroke="transparent" points="-4,4 -4,-356 500,-356 500,4 -4,4"/>
<text text-anchor="start" x="227.0091" y="-42.4" font-family="sans-serif" font-weight="bold" font-size="14.00" fill="#000000">Legend</text>
<polygon fill="#ffffb3" stroke="transparent" points="14,-10 14,-30 34,-30 34,-10 14,-10"/>
<text text-anchor="start" x="37.629" y="-15.4" font-family="sans-serif" font-size="14.00" fill="#000000"> &#160;Declarations</text>
<polygon fill="#8dd3c7" stroke="transparent" points="127,-10 127,-30 147,-30 147,-10 127,-10"/>
<text text-anchor="start" x="150.7251" y="-15.4" font-family="sans-serif" font-size="14.00" fill="#000000"> &#160;Module</text>
<polygon fill="#80b1d3" stroke="transparent" points="213,-10 213,-30 233,-30 233,-10 213,-10"/>
<text text-anchor="start" x="236.7812" y="-15.4" font-family="sans-serif" font-size="14.00" fill="#000000"> &#160;Bootstrap</text>
<polygon fill="#fdb462" stroke="transparent" points="310,-10 310,-30 330,-30 330,-10 310,-10"/>
<text text-anchor="start" x="333.6732" y="-15.4" font-family="sans-serif" font-size="14.00" fill="#000000"> &#160;Providers</text>
<polygon fill="#fb8072" stroke="transparent" points="406,-10 406,-30 426,-30 426,-10 406,-10"/>
<text text-anchor="start" x="429.7258" y="-15.4" font-family="sans-serif" font-size="14.00" fill="#000000"> &#160;Exports</text>
<g id="clust1" class="cluster">
<title>cluster_AppModule</title>
<polygon fill="none" stroke="#000000" stroke-dasharray="1,5" points="62.5,-146 62.5,-344 460.5,-344 460.5,-146 62.5,-146"/>
</g>
<g id="clust2" class="cluster">
<title>cluster_AppModule_declarations</title>
<polygon fill="none" stroke="#000000" points="242.5,-154 242.5,-206 452.5,-206 452.5,-154 242.5,-154"/>
</g>
<g id="clust5" class="cluster">
<title>cluster_AppModule_imports</title>
<polygon fill="none" stroke="#000000" points="70.5,-154 70.5,-206 234.5,-206 234.5,-154 70.5,-154"/>
</g>
<g id="clust7" class="cluster">
<title>cluster_AppModule_bootstrap</title>
<polygon fill="none" stroke="#000000" points="223.5,-284 223.5,-336 347.5,-336 347.5,-284 223.5,-284"/>
</g>
<g id="clust9" class="cluster">
<title>cluster_DeviceDetectorModule</title>
<polygon fill="none" stroke="#000000" stroke-dasharray="1,5" points="35.5,-70 35.5,-138 269.5,-138 269.5,-70 35.5,-70"/>
</g>
<g id="clust14" class="cluster">
<title>cluster_DeviceDetectorModule_providers</title>
<polygon fill="none" stroke="#000000" points="43.5,-78 43.5,-130 261.5,-130 261.5,-78 43.5,-78"/>
</g>
<!-- AppComponent -->
<g id="node1" class="node">
<title>AppComponent</title>
<polygon fill="#ffffb3" stroke="#000000" points="444.4399,-198 338.5601,-198 338.5601,-162 444.4399,-162 444.4399,-198"/>
<text text-anchor="middle" x="391.5" y="-175.8" font-family="Times,serif" font-size="14.00" fill="#000000">AppComponent</text>
</g>
<!-- AppModule -->
<g id="node3" class="node">
<title>AppModule</title>
<polygon fill="#8dd3c7" stroke="#000000" points="327.1571,-263 324.1571,-267 303.1571,-267 300.1571,-263 243.8429,-263 243.8429,-227 327.1571,-227 327.1571,-263"/>
<text text-anchor="middle" x="285.5" y="-240.8" font-family="Times,serif" font-size="14.00" fill="#000000">AppModule</text>
</g>
<!-- AppComponent&#45;&gt;AppModule -->
<g id="edge1" class="edge">
<title>AppComponent&#45;&gt;AppModule</title>
<path fill="none" stroke="#000000" d="M338.5114,-180C329.9498,-180 323.8275,-180 323.8275,-180 323.8275,-180 323.8275,-216.8939 323.8275,-216.8939"/>
<polygon fill="#000000" stroke="#000000" points="320.3276,-216.8938 323.8275,-226.8939 327.3276,-216.8939 320.3276,-216.8938"/>
</g>
<!-- KeysPipe -->
<g id="node2" class="node">
<title>KeysPipe</title>
<polygon fill="#ffffb3" stroke="#000000" points="320.1545,-198 250.8455,-198 250.8455,-162 320.1545,-162 320.1545,-198"/>
<text text-anchor="middle" x="285.5" y="-175.8" font-family="Times,serif" font-size="14.00" fill="#000000">KeysPipe</text>
</g>
<!-- KeysPipe&#45;&gt;AppModule -->
<g id="edge2" class="edge">
<title>KeysPipe&#45;&gt;AppModule</title>
<path fill="none" stroke="#000000" d="M285.5,-198.1061C285.5,-198.1061 285.5,-216.991 285.5,-216.991"/>
<polygon fill="#000000" stroke="#000000" points="282.0001,-216.9909 285.5,-226.991 289.0001,-216.991 282.0001,-216.9909"/>
</g>
<!-- AppComponent  -->
<g id="node5" class="node">
<title>AppComponent </title>
<polygon fill="#80b1d3" stroke="#000000" points="339.939,-328 231.061,-328 231.061,-292 339.939,-292 339.939,-328"/>
<text text-anchor="middle" x="285.5" y="-305.8" font-family="Times,serif" font-size="14.00" fill="#000000">AppComponent </text>
</g>
<!-- AppModule&#45;&gt;AppComponent  -->
<g id="edge4" class="edge">
<title>AppModule&#45;&gt;AppComponent </title>
<path fill="none" stroke="#000000" stroke-dasharray="1,5" d="M285.5,-263.1061C285.5,-263.1061 285.5,-281.991 285.5,-281.991"/>
<polygon fill="#000000" stroke="#000000" points="282.0001,-281.9909 285.5,-291.991 289.0001,-281.991 282.0001,-281.9909"/>
</g>
<!-- DeviceDetectorModule -->
<g id="node4" class="node">
<title>DeviceDetectorModule</title>
<polygon fill="#8dd3c7" stroke="#000000" points="226.3835,-198 223.3835,-202 202.3835,-202 199.3835,-198 78.6165,-198 78.6165,-162 226.3835,-162 226.3835,-198"/>
<text text-anchor="middle" x="152.5" y="-175.8" font-family="Times,serif" font-size="14.00" fill="#000000">DeviceDetectorModule</text>
</g>
<!-- DeviceDetectorModule&#45;&gt;AppModule -->
<g id="edge3" class="edge">
<title>DeviceDetectorModule&#45;&gt;AppModule</title>
<path fill="none" stroke="#000000" d="M226.63,-180C238.6075,-180 247.1725,-180 247.1725,-180 247.1725,-180 247.1725,-216.8939 247.1725,-216.8939"/>
<polygon fill="#000000" stroke="#000000" points="243.6726,-216.8938 247.1725,-226.8939 250.6726,-216.8939 243.6726,-216.8938"/>
</g>
<!-- DeviceDetectorService -->
<g id="node6" class="node">
<title>DeviceDetectorService</title>
<ellipse fill="#fdb462" stroke="#000000" cx="152.5" cy="-104" rx="100.6553" ry="18"/>
<text text-anchor="middle" x="152.5" y="-99.8" font-family="Times,serif" font-size="14.00" fill="#000000">DeviceDetectorService</text>
</g>
<!-- DeviceDetectorService&#45;&gt;DeviceDetectorModule -->
<g id="edge5" class="edge">
<title>DeviceDetectorService&#45;&gt;DeviceDetectorModule</title>
<path fill="none" stroke="#000000" d="M152.5,-122.0109C152.5,-122.0109 152.5,-151.855 152.5,-151.855"/>
<polygon fill="#000000" stroke="#000000" points="149.0001,-151.8549 152.5,-161.855 156.0001,-151.855 149.0001,-151.8549"/>
</g>
</g>
</svg>
