<?xml version="1.0" encoding="UTF-8" standalone="no"?>
<!DOCTYPE svg PUBLIC "-//W3C//DTD SVG 1.1//EN"
 "http://www.w3.org/Graphics/SVG/1.1/DTD/svg11.dtd">
<!-- Generated by graphviz version 2.47.3 (20210619.1520)
 -->
<!-- Title: dependencies Pages: 1 -->
<svg width="394pt" height="247pt"
 viewBox="0.00 0.00 394.00 246.80" xmlns="http://www.w3.org/2000/svg" xmlns:xlink="http://www.w3.org/1999/xlink">
<g id="graph0" class="graph" transform="scale(1 1) rotate(0) translate(4 242.8)">
<title>dependencies</title>
<polygon fill="white" stroke="transparent" points="-4,4 -4,-242.8 390,-242.8 390,4 -4,4"/>
<text text-anchor="middle" x="193" y="-8.2" font-family="sans-serif" font-size="14.00">dependencies</text>
<g id="clust1" class="cluster">
<title>cluster_AppModule</title>
<polygon fill="none" stroke="black" stroke-dasharray="1,5" points="8,-32.8 8,-230.8 234,-230.8 234,-32.8 8,-32.8"/>
</g>
<g id="clust2" class="cluster">
<title>cluster_AppModule_declarations</title>
<polygon fill="none" stroke="black" points="16,-40.8 16,-92.8 226,-92.8 226,-40.8 16,-40.8"/>
</g>
<g id="clust7" class="cluster">
<title>cluster_AppModule_bootstrap</title>
<polygon fill="none" stroke="black" points="102,-170.8 102,-222.8 226,-222.8 226,-170.8 102,-170.8"/>
</g>
<g id="clust9" class="cluster">
<title>cluster_AppServerModule</title>
<polygon fill="none" stroke="black" stroke-dasharray="1,5" points="242,-170.8 242,-222.8 378,-222.8 378,-170.8 242,-170.8"/>
</g>
<!-- AppComponent -->
<g id="node1" class="node">
<title>AppComponent</title>
<polygon fill="#ffffb3" stroke="black" points="217.94,-84.8 112.06,-84.8 112.06,-48.8 217.94,-48.8 217.94,-84.8"/>
<text text-anchor="middle" x="165" y="-62.6" font-family="Times,serif" font-size="14.00">AppComponent</text>
</g>
<!-- AppModule -->
<g id="node3" class="node">
<title>AppModule</title>
<polygon fill="#8dd3c7" stroke="black" points="205.66,-149.8 202.66,-153.8 181.66,-153.8 178.66,-149.8 122.34,-149.8 122.34,-113.8 205.66,-113.8 205.66,-149.8"/>
<text text-anchor="middle" x="164" y="-127.6" font-family="Times,serif" font-size="14.00">AppModule</text>
</g>
<!-- AppComponent&#45;&gt;AppModule -->
<g id="edge1" class="edge">
<title>AppComponent&#45;&gt;AppModule</title>
<path fill="none" stroke="black" d="M164,-84.91C164,-84.91 164,-103.79 164,-103.79"/>
<polygon fill="black" stroke="black" points="160.5,-103.79 164,-113.79 167.5,-103.79 160.5,-103.79"/>
</g>
<!-- KeysPipe -->
<g id="node2" class="node">
<title>KeysPipe</title>
<polygon fill="#ffffb3" stroke="black" points="93.65,-84.8 24.35,-84.8 24.35,-48.8 93.65,-48.8 93.65,-84.8"/>
<text text-anchor="middle" x="59" y="-62.6" font-family="Times,serif" font-size="14.00">KeysPipe</text>
</g>
<!-- KeysPipe&#45;&gt;AppModule -->
<g id="edge2" class="edge">
<title>KeysPipe&#45;&gt;AppModule</title>
<path fill="none" stroke="black" d="M59,-84.91C59,-104.14 59,-131.8 59,-131.8 59,-131.8 112.2,-131.8 112.2,-131.8"/>
<polygon fill="black" stroke="black" points="112.2,-135.3 122.2,-131.8 112.2,-128.3 112.2,-135.3"/>
</g>
<!-- AppComponent  -->
<g id="node4" class="node">
<title>AppComponent </title>
<polygon fill="#80b1d3" stroke="black" points="218.44,-214.8 109.56,-214.8 109.56,-178.8 218.44,-178.8 218.44,-214.8"/>
<text text-anchor="middle" x="164" y="-192.6" font-family="Times,serif" font-size="14.00">AppComponent </text>
</g>
<!-- AppModule&#45;&gt;AppComponent  -->
<g id="edge3" class="edge">
<title>AppModule&#45;&gt;AppComponent </title>
<path fill="none" stroke="black" stroke-dasharray="1,5" d="M164,-149.91C164,-149.91 164,-168.79 164,-168.79"/>
<polygon fill="black" stroke="black" points="160.5,-168.79 164,-178.79 167.5,-168.79 160.5,-168.79"/>
</g>
<!-- AppServerModule -->
<g id="node5" class="node">
<title>AppServerModule</title>
<polygon fill="#8dd3c7" stroke="black" points="370.19,-214.8 367.19,-218.8 346.19,-218.8 343.19,-214.8 249.81,-214.8 249.81,-178.8 370.19,-178.8 370.19,-214.8"/>
<text text-anchor="middle" x="310" y="-192.6" font-family="Times,serif" font-size="14.00">AppServerModule</text>
</g>
<!-- AppModule&#45;&gt;AppServerModule -->
<g id="edge4" class="edge">
<title>AppModule&#45;&gt;AppServerModule</title>
<path fill="none" stroke="black" d="M205.84,-131.8C248.98,-131.8 310,-131.8 310,-131.8 310,-131.8 310,-168.69 310,-168.69"/>
<polygon fill="black" stroke="black" points="306.5,-168.69 310,-178.69 313.5,-168.69 306.5,-168.69"/>
</g>
<!-- AppServerModule&#45;&gt;AppComponent  -->
<g id="edge5" class="edge">
<title>AppServerModule&#45;&gt;AppComponent </title>
<path fill="none" stroke="black" stroke-dasharray="1,5" d="M249.77,-196.8C249.77,-196.8 228.48,-196.8 228.48,-196.8"/>
<polygon fill="black" stroke="black" points="228.48,-193.3 218.48,-196.8 228.48,-200.3 228.48,-193.3"/>
</g>
</g>
</svg>
