<?xml version="1.0" encoding="UTF-8" standalone="no"?>
<!DOCTYPE svg PUBLIC "-//W3C//DTD SVG 1.1//EN"
 "http://www.w3.org/Graphics/SVG/1.1/DTD/svg11.dtd">
<!-- Generated by graphviz version 2.47.3 (20210619.1520)
 -->
<!-- Title: dependencies Pages: 1 -->
<svg width="250pt" height="247pt"
 viewBox="0.00 0.00 250.00 246.80" xmlns="http://www.w3.org/2000/svg" xmlns:xlink="http://www.w3.org/1999/xlink">
<g id="graph0" class="graph" transform="scale(1 1) rotate(0) translate(4 242.8)">
<title>dependencies</title>
<polygon fill="white" stroke="transparent" points="-4,4 -4,-242.8 246,-242.8 246,4 -4,4"/>
<text text-anchor="middle" x="121" y="-8.2" font-family="sans-serif" font-size="14.00">dependencies</text>
<g id="clust1" class="cluster">
<title>cluster_AppModule</title>
<polygon fill="none" stroke="black" stroke-dasharray="1,5" points="8,-32.8 8,-230.8 234,-230.8 234,-32.8 8,-32.8"/>
</g>
<g id="clust7" class="cluster">
<title>cluster_AppModule_bootstrap</title>
<polygon fill="none" stroke="black" points="59,-170.8 59,-222.8 183,-222.8 183,-170.8 59,-170.8"/>
</g>
<g id="clust2" class="cluster">
<title>cluster_AppModule_declarations</title>
<polygon fill="none" stroke="black" points="16,-40.8 16,-92.8 226,-92.8 226,-40.8 16,-40.8"/>
</g>
<!-- AppComponent -->
<g id="node1" class="node">
<title>AppComponent</title>
<polygon fill="#ffffb3" stroke="black" points="217.94,-84.8 112.06,-84.8 112.06,-48.8 217.94,-48.8 217.94,-84.8"/>
<text text-anchor="middle" x="165" y="-62.6" font-family="Times,serif" font-size="14.00">AppComponent</text>
</g>
<!-- AppModule -->
<g id="node3" class="node">
<title>AppModule</title>
<polygon fill="#8dd3c7" stroke="black" points="162.66,-149.8 159.66,-153.8 138.66,-153.8 135.66,-149.8 79.34,-149.8 79.34,-113.8 162.66,-113.8 162.66,-149.8"/>
<text text-anchor="middle" x="121" y="-127.6" font-family="Times,serif" font-size="14.00">AppModule</text>
</g>
<!-- AppComponent&#45;&gt;AppModule -->
<g id="edge1" class="edge">
<title>AppComponent&#45;&gt;AppModule</title>
<path fill="none" stroke="black" d="M137.55,-84.91C137.55,-84.91 137.55,-103.79 137.55,-103.79"/>
<polygon fill="black" stroke="black" points="134.05,-103.79 137.55,-113.79 141.05,-103.79 134.05,-103.79"/>
</g>
<!-- KeysPipe -->
<g id="node2" class="node">
<title>KeysPipe</title>
<polygon fill="#ffffb3" stroke="black" points="93.65,-84.8 24.35,-84.8 24.35,-48.8 93.65,-48.8 93.65,-84.8"/>
<text text-anchor="middle" x="59" y="-62.6" font-family="Times,serif" font-size="14.00">KeysPipe</text>
</g>
<!-- KeysPipe&#45;&gt;AppModule -->
<g id="edge2" class="edge">
<title>KeysPipe&#45;&gt;AppModule</title>
<path fill="none" stroke="black" d="M86.5,-84.91C86.5,-84.91 86.5,-103.79 86.5,-103.79"/>
<polygon fill="black" stroke="black" points="83,-103.79 86.5,-113.79 90,-103.79 83,-103.79"/>
</g>
<!-- AppComponent  -->
<g id="node4" class="node">
<title>AppComponent </title>
<polygon fill="#80b1d3" stroke="black" points="175.44,-214.8 66.56,-214.8 66.56,-178.8 175.44,-178.8 175.44,-214.8"/>
<text text-anchor="middle" x="121" y="-192.6" font-family="Times,serif" font-size="14.00">AppComponent </text>
</g>
<!-- AppModule&#45;&gt;AppComponent  -->
<g id="edge3" class="edge">
<title>AppModule&#45;&gt;AppComponent </title>
<path fill="none" stroke="black" stroke-dasharray="1,5" d="M121,-149.91C121,-149.91 121,-168.79 121,-168.79"/>
<polygon fill="black" stroke="black" points="117.5,-168.79 121,-178.79 124.5,-168.79 117.5,-168.79"/>
</g>
</g>
</svg>
