<svg width="251" height="46" viewBox="0 0 251 46" fill="none" xmlns="http://www.w3.org/2000/svg">
<path d="M90.888 11.3715L89.8155 10.8758C89.9502 10.1332 89.9607 9.37342 89.8464 8.62744L91.0149 8.19813C91.4386 8.04162 91.7828 7.72319 91.9718 7.31289C92.1608 6.90259 92.179 6.43403 92.0225 6.01028C91.866 5.58653 91.5476 5.24232 91.1373 5.05335C90.727 4.86439 90.2584 4.84615 89.8346 5.00266L88.5172 5.48803C88.1006 4.93924 87.6032 4.45675 87.0419 4.057L87.6822 2.67023C87.7809 2.46682 87.838 2.24578 87.8503 2.02003C87.8626 1.79428 87.8297 1.56835 87.7536 1.35545C87.6776 1.14255 87.5598 0.946943 87.4073 0.780075C87.2547 0.613207 87.0705 0.478421 86.8652 0.383598C86.66 0.288775 86.4379 0.235817 86.212 0.22782C85.986 0.219823 85.7608 0.256948 85.5493 0.337023C85.3379 0.417099 85.1446 0.538519 84.9806 0.694185C84.8166 0.849851 84.6854 1.03664 84.5944 1.24363L83.8568 2.83842C83.2615 2.77018 82.6597 2.7811 82.0673 2.87087L81.4211 1.11381C81.2646 0.689866 80.9461 0.345461 80.5356 0.156357C80.1252 -0.0327463 79.6564 -0.0510583 79.2325 0.10545C78.8086 0.261958 78.4642 0.580465 78.2751 0.990905C78.0859 1.40134 78.0676 1.87009 78.2241 2.29404L78.9234 4.19863C78.4962 4.5247 78.109 4.90005 77.7698 5.3169L75.8902 4.44795C75.4794 4.25858 75.0102 4.24016 74.5858 4.39676C74.1614 4.55335 73.8165 4.87213 73.6272 5.28296C73.4378 5.6938 73.4194 6.16303 73.576 6.58744C73.7326 7.01186 74.0513 7.35668 74.4622 7.54605L76.3417 8.41352C76.2445 8.94217 76.2108 9.48052 76.2414 10.0172L74.3338 10.7032C74.124 10.7807 73.9315 10.8987 73.7673 11.0506C73.6031 11.2025 73.4705 11.3852 73.3769 11.5884C73.2833 11.7916 73.2307 12.0112 73.222 12.2347C73.2133 12.4582 73.2487 12.6812 73.3262 12.891C73.4037 13.1008 73.5218 13.2933 73.6736 13.4575C73.8255 13.6217 74.0083 13.7544 74.2114 13.8479C74.4146 13.9415 74.6342 13.9941 74.8577 14.0028C75.0812 14.0115 75.3042 13.9761 75.514 13.8986L77.2682 13.2539C77.5855 13.7622 77.9684 14.2265 78.4071 14.6348L77.6694 16.2325C77.4803 16.6422 77.4616 17.1102 77.6175 17.5337C77.7734 17.9571 78.0911 18.3013 78.5008 18.4905C78.9104 18.6796 79.3785 18.6983 79.8019 18.5424C80.2253 18.3865 80.5695 18.0688 80.7587 17.6591L81.4004 16.2724C82.0686 16.4445 82.7592 16.5127 83.4481 16.4745L83.9335 17.7919C84.09 18.2159 84.4085 18.5603 84.819 18.7494C85.2294 18.9385 85.6981 18.9568 86.1221 18.8003C86.546 18.6438 86.8904 18.3253 87.0795 17.9148C87.2686 17.5044 87.287 17.0356 87.1304 16.6117L86.7026 15.4447C87.3431 15.0469 87.9129 14.5454 88.3889 13.9606L89.4629 14.4578C89.8737 14.6473 90.343 14.6659 90.7676 14.5095C91.1921 14.353 91.5371 14.0343 91.7267 13.6235C91.9163 13.2127 91.9349 12.7433 91.7784 12.3188C91.622 11.8942 91.3033 11.5492 90.8924 11.3597L90.888 11.3715ZM86.5551 11.2431C86.2251 11.9584 85.6903 12.5598 85.0185 12.9713C84.3467 13.3827 83.568 13.5857 82.7808 13.5545C81.9936 13.5234 81.2334 13.2596 80.5962 12.7964C79.9589 12.3332 79.4734 11.6914 79.2009 10.9523C78.9283 10.2131 78.8811 9.40978 79.0652 8.6438C79.2492 7.87781 79.6563 7.1836 80.2348 6.64895C80.8134 6.11429 81.5375 5.7632 82.3156 5.64006C83.0937 5.51693 83.8908 5.62728 84.6062 5.95717C85.0813 6.17625 85.5086 6.48676 85.8636 6.87098C86.2187 7.2552 86.4946 7.70561 86.6756 8.19647C86.8565 8.68733 86.939 9.20903 86.9184 9.73178C86.8977 10.2545 86.7743 10.7681 86.5551 11.2431Z" fill="#FFB600"/>
<path d="M27.4205 34.8404L27.3969 34.7769C20.7994 37.1108 16.5034 33.8519 14.9942 32.3899C15.1649 32.0471 15.2538 31.6694 15.2538 31.2864C15.2556 30.7507 15.0859 30.2286 14.7695 29.7963C14.4531 29.3641 14.0066 29.0446 13.4954 28.8845C12.9842 28.7244 12.4352 28.7322 11.9288 28.9067C11.4223 29.0812 10.9851 29.4133 10.681 29.8543C10.377 30.2953 10.2221 30.8221 10.2391 31.3575C10.2561 31.8929 10.4441 32.4087 10.7755 32.8296C11.1069 33.2504 11.5644 33.554 12.0809 33.6961C12.5974 33.8381 13.1458 33.811 13.6457 33.6188C14.053 34.0096 14.4841 34.3747 14.9366 34.712L14.0131 35.2298C10.8221 34.1971 8.70207 31.9842 7.76821 30.8364C8.15385 30.4128 8.38203 29.8694 8.41447 29.2974C8.44691 28.7255 8.28163 28.1598 7.94637 27.6953C7.61111 27.2307 7.12627 26.8957 6.57322 26.7463C6.02017 26.5969 5.43256 26.6423 4.90901 26.8748C4.38546 27.1074 3.95783 27.5129 3.69789 28.0234C3.43794 28.5339 3.3615 29.1183 3.48139 29.6785C3.60128 30.2387 3.91021 30.7406 4.35633 31.1C4.80245 31.4594 5.35861 31.6544 5.93148 31.6523C5.97574 31.6523 6.02 31.6523 6.06426 31.6523C7.00844 32.9077 9.61675 35.8849 13.8656 37.1108L14.2344 37.2185L16.6937 35.8362C18.6177 36.8789 20.7723 37.4231 22.9607 37.4192C23.2056 37.4192 23.4579 37.4103 23.7116 37.3955C23.359 37.5991 23.0035 37.7924 22.6435 37.9783C21.2036 38.7159 19.7136 39.306 18.2324 39.5937C17.5155 39.7454 16.7828 39.8093 16.0505 39.784C15.2753 39.7696 14.5025 39.6956 13.7387 39.5627C10.6389 39.0357 7.7504 37.6455 5.40481 35.5514C3.00894 33.4433 1.17812 30.6255 0.0406707 27.3075C-0.205702 30.8291 1.13386 34.5173 3.543 37.3513C6.01344 40.2532 9.42855 42.1903 13.1869 42.8216C14.123 42.9736 15.0697 43.05 16.018 43.0503C17.0105 43.0413 17.9977 42.9044 18.9553 42.6431C20.7656 42.1294 22.4711 41.3004 23.9934 40.1942C25.4461 39.1564 26.7548 37.9306 27.8852 36.5487C27.9265 36.5355 27.9663 36.5237 28.0062 36.5089L27.9796 36.4351C29.0933 35.0762 29.9959 33.5573 30.6573 31.9296C29.6339 32.9599 28.5532 33.9317 27.4205 34.8404ZM12.7562 32.3752C12.5402 32.3752 12.3292 32.3111 12.1496 32.1912C11.9701 32.0712 11.8302 31.9007 11.7475 31.7012C11.6649 31.5017 11.6433 31.2822 11.6854 31.0705C11.7275 30.8587 11.8315 30.6642 11.9842 30.5115C12.1369 30.3588 12.3314 30.2548 12.5432 30.2127C12.7549 30.1706 12.9744 30.1922 13.1739 30.2748C13.3734 30.3575 13.5439 30.4974 13.6639 30.6769C13.7838 30.8565 13.8479 31.0675 13.8479 31.2834C13.8475 31.5729 13.7323 31.8503 13.5277 32.055C13.323 32.2596 13.0456 32.3748 12.7562 32.3752ZM5.93148 30.2389C5.71588 30.2381 5.50536 30.1734 5.32648 30.053C5.14759 29.9327 5.00836 29.762 4.92632 29.5626C4.84428 29.3632 4.82312 29.144 4.8655 28.9326C4.90789 28.7212 5.01192 28.5271 5.16448 28.3748C5.31704 28.2224 5.51129 28.1186 5.72274 28.0765C5.9342 28.0344 6.15339 28.0559 6.35267 28.1382C6.55194 28.2205 6.72239 28.36 6.84251 28.539C6.96263 28.7181 7.02704 28.9287 7.02762 29.1443C7.02762 29.2882 6.99926 29.4306 6.94415 29.5635C6.88905 29.6964 6.80829 29.8172 6.70648 29.9188C6.60468 30.0205 6.48382 30.1011 6.35084 30.156C6.21786 30.211 6.07536 30.2391 5.93148 30.2389Z" fill="white"/>
<path d="M76.4913 23.1737L74.6442 23.2371C74.5197 22.1718 74.3005 21.1197 73.9892 20.0933L75.1178 19.6138C75.3901 19.4976 75.6368 19.3289 75.8439 19.1173C76.051 18.9057 76.2144 18.6553 76.3247 18.3806C76.4351 18.1059 76.4902 17.8121 76.4871 17.516C76.4839 17.22 76.4224 16.9275 76.3062 16.6552C76.1899 16.3829 76.0212 16.1361 75.8096 15.929C75.598 15.7219 75.3477 15.5586 75.0729 15.4482C74.7982 15.3379 74.5044 15.2827 74.2084 15.2859C73.9123 15.2891 73.6198 15.3506 73.3475 15.4668L72.1436 15.9802C71.6965 15.2469 71.1971 14.5467 70.6492 13.8853L71.9769 12.3997C72.1789 12.1794 72.335 11.9211 72.4363 11.6399C72.5375 11.3587 72.5818 11.0602 72.5666 10.7617C72.5514 10.4633 72.477 10.1708 72.3477 9.90131C72.2185 9.63185 72.0369 9.39079 71.8136 9.19214C71.5903 8.99349 71.3298 8.84123 71.0471 8.74421C70.7644 8.64719 70.4652 8.60736 70.167 8.62701C69.8688 8.64667 69.5775 8.72543 69.31 8.85872C69.0425 8.992 68.8041 9.17715 68.6089 9.40339L67.3681 10.8034C66.5655 10.223 65.7163 9.70987 64.8292 9.26914L65.3072 7.57256C65.3955 7.28544 65.4256 6.98355 65.3956 6.68464C65.3657 6.38573 65.2763 6.09582 65.1327 5.83196C64.9891 5.56809 64.7942 5.33559 64.5594 5.14812C64.3247 4.96064 64.0549 4.82197 63.7658 4.74026C63.4767 4.65855 63.1742 4.63545 62.8761 4.6723C62.5779 4.70916 62.2902 4.80524 62.0297 4.95489C61.7692 5.10454 61.5413 5.30475 61.3593 5.54374C61.1772 5.78274 61.0448 6.0557 60.9698 6.3466L60.5597 7.79238C59.2874 7.52628 57.9897 7.40111 56.69 7.41913H56.6531L56.4687 6.76558C56.3419 6.35156 56.0579 6.00368 55.6778 5.7964C55.2976 5.58912 54.8514 5.53893 54.4346 5.65656C54.0179 5.77419 53.6638 6.0503 53.4481 6.42578C53.2324 6.80126 53.1723 7.24626 53.2806 7.6655L53.3677 7.97088L53.3338 7.98121C52.3012 8.30665 51.3035 8.73362 50.3552 9.25586C48.5131 10.2784 46.8469 11.5899 45.4203 13.1403C44.0158 14.6672 42.8223 16.4095 42.1127 18.3348C43.5003 16.923 45.0051 15.6314 46.6109 14.4739C48.1524 13.3505 49.7969 12.3754 51.5221 11.5617C52.3501 11.172 53.2093 10.8522 54.0906 10.6057C54.9205 10.3708 55.7804 10.259 56.6428 10.2738C59.3652 10.3384 62.0163 11.1575 64.3007 12.6398C66.5851 14.1222 68.4131 16.2097 69.5811 18.6697C70.537 20.655 71.0224 22.834 70.9996 25.0374C70.9768 27.2408 70.4464 29.4093 69.4496 31.3745C68.4528 33.3397 67.0164 35.0486 65.2521 36.3686C63.4877 37.6887 61.4428 38.5842 59.2762 38.9858C58.4237 39.1436 57.5585 39.2222 56.6915 39.2204C55.9231 39.2137 55.161 39.0807 54.4358 38.8265C52.8794 38.3087 51.3023 37.3792 49.8093 36.2964C48.2896 35.1712 46.8524 33.9387 45.5088 32.6082C44.1339 31.273 42.815 29.8538 41.5506 28.3829C40.9178 27.6453 40.2908 26.9076 39.6829 26.1449C39.0751 25.3822 38.4658 24.6062 37.9288 23.8686C36.7147 22.1617 35.3707 20.4961 33.9869 18.9072C32.5995 17.2983 31.1275 15.7643 29.5772 14.3117C28.0046 12.8313 26.312 11.4837 24.517 10.2827C22.6832 9.10243 20.668 8.02695 18.3282 7.56518C17.7358 7.45215 17.1343 7.39339 16.5313 7.38962H16.1698H16.0739L15.6741 7.41175C15.3791 7.42946 15.1062 7.45306 14.8273 7.48552C11.506 7.85344 8.36028 9.16794 5.76465 11.2726C4.0719 12.6477 2.65392 14.3299 1.58517 16.231C1.06258 17.173 0.658245 18.1759 0.381333 19.217C0.0988666 20.2446 -0.0279401 21.3088 0.00513698 22.3741L0.248558 22.4154C0.633608 21.4461 1.02603 20.5167 1.47157 19.6242C1.91064 18.7406 2.40843 17.8874 2.96161 17.0704C4.04172 15.4493 5.41937 14.0476 7.02159 12.9396C8.5977 11.8496 10.3672 11.07 12.2353 10.6426C13.156 10.4332 14.0946 10.3117 15.0383 10.2797C15.2729 10.2709 15.5133 10.2694 15.7332 10.2723L16.1049 10.2812H16.2008C16.2215 10.2822 16.2421 10.2822 16.2628 10.2812L16.4177 10.293C16.8427 10.3299 17.2634 10.4054 17.6746 10.5187C18.7543 10.8282 19.7852 11.2876 20.7373 11.8833C19.1936 12.1049 17.7015 12.5989 16.3306 13.3424L13.8684 11.9601L13.4996 12.0678C9.25075 13.2967 6.64245 16.2753 5.69826 17.5263C5.654 17.5263 5.60974 17.5189 5.56548 17.5189C4.98947 17.5166 4.4302 17.7126 3.98167 18.074C3.53314 18.4354 3.22269 18.9402 3.10249 19.5035C2.98229 20.0669 3.05967 20.6544 3.32162 21.1674C3.58357 21.6805 4.01414 22.0877 4.54095 22.3206C5.06775 22.5536 5.6587 22.5981 6.21446 22.4467C6.77023 22.2953 7.25694 21.9572 7.5928 21.4892C7.92866 21.0213 8.0932 20.4519 8.05876 19.877C8.02432 19.302 7.79301 18.7564 7.40369 18.3318C8.3405 17.1767 10.4575 14.9755 13.6486 13.9384L14.5721 14.4577C14.1196 14.7946 13.6885 15.1592 13.2812 15.5494C12.7355 15.3398 12.1336 15.3273 11.5797 15.5143C11.0258 15.7013 10.5546 16.0759 10.2475 16.5734C9.94046 17.0709 9.81688 17.6601 9.89811 18.239C9.97934 18.818 10.2603 19.3504 10.6924 19.7442C11.1245 20.138 11.6806 20.3685 12.2646 20.3958C12.8486 20.4231 13.4238 20.2456 13.8908 19.8938C14.3577 19.542 14.6872 19.0382 14.8221 18.4693C14.957 17.9005 14.8889 17.3023 14.6296 16.7783C15.7572 15.6864 17.0987 14.8399 18.5696 14.2919C20.0404 13.744 21.6088 13.5066 23.176 13.5947C24.4915 14.6556 25.7336 15.8045 26.8937 17.0336C29.6301 19.9433 32.115 23.0796 34.3218 26.409C34.9487 27.2942 35.5521 28.0938 36.1895 28.917C36.8268 29.7402 37.4685 30.5265 38.1383 31.3084C39.4661 32.8722 40.872 34.3918 42.3591 35.8464C43.8654 37.3231 45.4762 38.6893 47.1789 39.9344C48.9227 41.181 50.8228 42.3303 53.08 43.0502C53.1966 43.0871 53.3175 43.1225 53.437 43.1564L53.2733 43.7289C53.1675 44.1473 53.2292 44.5905 53.4453 44.9642C53.6613 45.3378 54.0147 45.6124 54.4301 45.7294C54.8455 45.8465 55.2903 45.7969 55.6696 45.591C56.049 45.3852 56.3331 45.0394 56.4614 44.6273L56.7461 43.602C57.8683 43.5864 58.9868 43.4684 60.0876 43.2494C60.2765 43.2125 60.4668 43.1668 60.6526 43.124L60.9595 44.2083C61.0399 44.4931 61.1756 44.7593 61.3589 44.9916C61.5421 45.224 61.7694 45.418 62.0276 45.5625C62.2859 45.707 62.57 45.7993 62.8639 45.834C63.1578 45.8687 63.4556 45.8451 63.7404 45.7648C64.0252 45.6843 64.2914 45.5486 64.5237 45.3654C64.7561 45.1821 64.9501 44.9549 65.0946 44.6966C65.2391 44.4384 65.3314 44.1542 65.3661 43.8604C65.4008 43.5665 65.3772 43.2686 65.2968 42.9838L64.897 41.5661C65.3947 41.3084 65.8791 41.0276 66.3502 40.7237C66.6674 40.5216 66.9728 40.3062 67.2767 40.0864L68.6044 41.5779C69.0069 42.0028 69.5589 42.2545 70.1437 42.2798C70.7284 42.305 71.3 42.1019 71.7377 41.7133C72.1754 41.3247 72.4447 40.7811 72.4888 40.1975C72.5329 39.6139 72.3483 39.036 71.974 38.586L70.6271 37.0738L70.27 37.3497C71.0232 36.4868 71.6953 35.5564 72.2779 34.5703L73.3489 35.0276C73.6212 35.1439 73.9138 35.2053 74.2098 35.2085C74.5059 35.2117 74.7997 35.1566 75.0744 35.0462C75.3491 34.9359 75.5994 34.7725 75.8111 34.5654C76.0227 34.3583 76.1914 34.1116 76.3076 33.8393C76.4239 33.567 76.4853 33.2745 76.4885 32.9784C76.4917 32.6823 76.4366 32.3886 76.3262 32.1138C76.2159 31.8391 76.0525 31.5888 75.8454 31.3772C75.6383 31.1656 75.3916 30.9968 75.1193 30.8806L74.0659 30.438C74.0969 30.3244 74.1338 30.2108 74.1648 30.0957C74.3716 29.3258 74.5253 28.5425 74.6251 27.7515L76.6462 27.6836C76.9451 27.6785 77.24 27.6139 77.5137 27.4937C77.7875 27.3734 78.0345 27.2 78.2406 26.9834C78.4466 26.7667 78.6075 26.5113 78.7139 26.2319C78.8202 25.9525 78.87 25.6548 78.8602 25.356C78.8504 25.0572 78.7813 24.7633 78.6569 24.4915C78.5324 24.2197 78.3552 23.9753 78.1354 23.7726C77.9156 23.5699 77.6578 23.413 77.3768 23.311C77.0958 23.2089 76.7973 23.1637 76.4987 23.1781L76.4913 23.1737ZM5.56548 21.1083C5.34915 21.1086 5.13759 21.0447 4.95759 20.9247C4.77759 20.8047 4.63725 20.634 4.55432 20.4341C4.4714 20.2343 4.44963 20.0144 4.49176 19.8022C4.53389 19.59 4.63804 19.3951 4.79101 19.2421C4.94399 19.0891 5.13891 18.985 5.3511 18.9429C5.5633 18.9007 5.78322 18.9225 5.98304 19.0054C6.18285 19.0883 6.35357 19.2287 6.47358 19.4087C6.59358 19.5887 6.65749 19.8003 6.6572 20.0166C6.65739 20.1602 6.62931 20.3023 6.57455 20.435C6.51979 20.5678 6.43943 20.6884 6.33805 20.79C6.23668 20.8917 6.11627 20.9724 5.98372 21.0275C5.85116 21.0826 5.70904 21.1111 5.56548 21.1113V21.1083ZM12.3902 18.9706C12.1742 18.9706 11.9632 18.9066 11.7836 18.7866C11.6041 18.6667 11.4642 18.4962 11.3815 18.2967C11.2989 18.0972 11.2773 17.8777 11.3194 17.6659C11.3615 17.4541 11.4655 17.2596 11.6182 17.1069C11.7709 16.9543 11.9654 16.8503 12.1772 16.8082C12.3889 16.766 12.6084 16.7877 12.8079 16.8703C13.0074 16.9529 13.1779 17.0928 13.2979 17.2724C13.4178 17.4519 13.4819 17.663 13.4819 17.8789C13.4821 18.0225 13.454 18.1647 13.3992 18.2974C13.3445 18.4301 13.2641 18.5507 13.1627 18.6523C13.0613 18.754 12.9409 18.8347 12.8084 18.8898C12.6758 18.9449 12.5337 18.9734 12.3902 18.9736V18.9706Z" fill="white"/>
<path d="M104.398 36.7186V9.77991H107.812V36.7186H104.398Z" fill="#FFB600"/>
<path d="M124.433 36.9074C122.639 36.9311 120.866 36.535 119.253 35.7508C117.728 35.0023 116.367 33.9571 115.25 32.6763C114.129 31.3862 113.254 29.901 112.67 28.2947C112.069 26.6799 111.761 24.9709 111.76 23.2478C111.754 21.481 112.082 19.729 112.728 18.0843C113.351 16.4813 114.259 15.0047 115.41 13.7263C116.544 12.4638 117.918 11.4385 119.451 10.7093C121.032 9.95817 122.764 9.57581 124.515 9.59106C126.308 9.56585 128.08 9.97591 129.679 10.786C131.196 11.5631 132.548 12.6262 133.662 13.9166C135.899 16.5281 137.136 19.8491 137.152 23.2876C137.159 25.0545 136.831 26.8066 136.185 28.4511C135.569 30.0479 134.67 31.5199 133.529 32.7958C132.4 34.0508 131.033 35.0696 129.508 35.7936C127.922 36.5455 126.187 36.9264 124.433 36.9074ZM115.212 23.2493C115.209 24.599 115.434 25.9396 115.876 27.2148C116.294 28.4489 116.93 29.5981 117.754 30.608C118.553 31.5895 119.548 32.3935 120.675 32.9684C121.852 33.5593 123.153 33.8584 124.469 33.8403C125.817 33.8641 127.149 33.5443 128.339 32.9109C129.461 32.306 130.449 31.4799 131.242 30.4826C132.047 29.4692 132.663 28.32 133.063 27.0894C133.912 24.5576 133.899 21.8162 133.026 19.2925C132.608 18.0594 131.964 16.9145 131.129 15.9156C130.319 14.9526 129.326 14.1594 128.208 13.5817C127.022 13.0016 125.719 12.7032 124.399 12.7098C123.08 12.7165 121.779 13.028 120.6 13.6201C119.481 14.2101 118.493 15.0218 117.698 16.0056C116.888 17.0125 116.264 18.1548 115.852 19.3796C115.428 20.6255 115.211 21.9329 115.212 23.2493Z" fill="#FFB600"/>
<path d="M164.421 36.7186V15.8891L155.466 31.862H153.532L144.533 15.8891V36.7186H141.125V9.77991H144.729L154.481 27.2709L164.269 9.77991H167.835V36.7186H164.421Z" fill="white"/>
<path d="M181.417 37.1022C180.009 37.1195 178.613 36.8416 177.318 36.2864C176.119 35.7709 175.035 35.0182 174.133 34.0734C173.239 33.1232 172.537 32.0085 172.068 30.7909C171.573 29.5283 171.323 28.183 171.33 26.8268C171.321 25.4763 171.572 24.1366 172.068 22.8804C172.545 21.667 173.254 20.5585 174.155 19.6171C175.067 18.6747 176.156 17.9225 177.36 17.4042C178.654 16.8489 180.05 16.571 181.458 16.5883C183.453 16.5525 185.41 17.1375 187.058 18.2623C188.706 19.3871 189.964 20.9963 190.658 22.8672C191.124 24.0845 191.362 25.3772 191.36 26.6808C191.36 26.9596 191.36 27.2119 191.341 27.4391C191.333 27.6171 191.314 27.7944 191.285 27.9702H174.853C174.915 28.9022 175.147 29.8152 175.536 30.664C175.895 31.4451 176.395 32.1529 177.012 32.7516C177.611 33.3288 178.311 33.7913 179.077 34.1162C179.854 34.4411 180.689 34.6038 181.53 34.5942C182.134 34.5947 182.734 34.5113 183.314 34.3464C183.881 34.1879 184.429 33.9657 184.946 33.684C185.444 33.409 185.898 33.0609 186.293 32.6513C186.675 32.2584 186.975 31.7942 187.178 31.2851L190.062 32.0818C189.728 32.8225 189.273 33.5022 188.715 34.0926C188.135 34.7088 187.471 35.2393 186.741 35.6682C185.963 36.1244 185.127 36.4752 184.257 36.7112C183.332 36.9693 182.377 37.1008 181.417 37.1022ZM188.203 25.4917C188.135 24.5891 187.897 23.7076 187.501 22.8937C187.136 22.1332 186.636 21.4453 186.026 20.8637C185.087 20.0032 183.925 19.4241 182.673 19.1927C181.421 18.9613 180.128 19.0869 178.944 19.5551C178.177 19.861 177.476 20.3118 176.879 20.8829C176.276 21.4638 175.787 22.1523 175.438 22.9129C175.063 23.7255 174.838 24.5991 174.774 25.4917H188.203Z" fill="white"/>
<path d="M192.988 26.7752C192.98 25.4264 193.225 24.0879 193.708 22.8288C194.168 21.621 194.865 20.5174 195.758 19.5832C196.659 18.6495 197.735 17.9021 198.925 17.3836C200.224 16.8265 201.626 16.55 203.04 16.5722C205.013 16.5722 206.714 17.0083 208.143 17.8807C209.538 18.7164 210.664 19.9344 211.388 21.3904L208.126 22.4143C207.641 21.4997 206.904 20.7431 206.002 20.2338C205.076 19.7107 204.029 19.442 202.966 19.4549C202.084 19.4515 201.212 19.6359 200.408 19.9959C199.603 20.3558 198.884 20.883 198.3 21.5424C197.703 22.2248 197.234 23.0088 196.914 23.8571C196.225 25.7447 196.232 27.8162 196.933 29.6992C197.263 30.5678 197.744 31.3706 198.356 32.07C198.937 32.7314 199.648 33.2675 200.443 33.6456C201.243 34.0257 202.119 34.2204 203.004 34.2151C203.588 34.2147 204.17 34.1312 204.73 33.9672C205.275 33.814 205.798 33.5908 206.285 33.3034C206.738 33.0381 207.153 32.7125 207.519 32.3356C207.855 31.9974 208.114 31.5902 208.278 31.1421L211.54 32.1276C211.234 32.8656 210.804 33.5457 210.268 34.1384C209.714 34.7537 209.067 35.2789 208.351 35.6948C206.748 36.6202 204.93 37.1057 203.079 37.1022C201.719 37.1187 200.37 36.8543 199.117 36.3255C197.864 35.7968 196.733 35.015 195.796 34.0292C194.902 33.079 194.2 31.9642 193.731 30.7467C193.234 29.4819 192.982 28.1341 192.988 26.7752Z" fill="white"/>
<path d="M231.765 36.7186H228.426V25.6392C228.426 23.5915 228.072 22.0671 227.364 21.0658C226.656 20.0646 225.618 19.565 224.251 19.5669C223.574 19.5714 222.904 19.7071 222.279 19.9667C221.616 20.2352 220.996 20.5996 220.439 21.0481C219.858 21.5137 219.347 22.0602 218.921 22.6709C218.476 23.3084 218.137 24.0133 217.916 24.7585V36.7083H214.576V9.02161H217.916V21.1691C218.653 19.7757 219.754 18.6085 221.103 17.7922C222.429 16.9867 223.952 16.5663 225.504 16.578C226.668 16.578 227.655 16.7929 228.463 17.2227C229.245 17.6264 229.911 18.223 230.399 18.9562C230.907 19.7623 231.261 20.6564 231.442 21.5925C231.662 22.6726 231.771 23.7726 231.765 24.875V36.7186Z" fill="white"/>
<path d="M243.145 37.1022C241.551 37.1013 239.966 36.8525 238.448 36.3645C236.993 35.9177 235.639 35.1894 234.465 34.221L235.908 31.9815C236.969 32.8105 238.145 33.4814 239.398 33.9731C240.574 34.4181 241.821 34.6431 243.078 34.637C244.518 34.637 245.663 34.3528 246.511 33.7843C246.915 33.5288 247.245 33.172 247.468 32.7493C247.691 32.3266 247.799 31.8528 247.782 31.3751C247.795 30.9391 247.676 30.5094 247.441 30.1418C247.173 29.7686 246.819 29.4651 246.409 29.2566C245.854 28.9649 245.269 28.7363 244.663 28.575C243.955 28.3734 243.134 28.158 242.198 27.9289C241.009 27.6259 239.984 27.3353 239.124 27.057C238.373 26.8295 237.658 26.4972 236.999 26.07C236.479 25.732 236.06 25.2601 235.785 24.7039C235.514 24.0826 235.385 23.4089 235.406 22.7314C235.39 21.8182 235.592 20.9144 235.996 20.0951C236.378 19.3349 236.93 18.6727 237.609 18.1595C238.332 17.62 239.148 17.2198 240.018 16.9793C240.987 16.7074 241.989 16.5733 242.995 16.581C244.418 16.5692 245.833 16.813 247.17 17.3009C248.365 17.7268 249.471 18.37 250.432 19.1981L248.915 21.2104C248.096 20.4849 247.144 19.9244 246.112 19.5596C245.089 19.1951 244.01 19.0089 242.924 19.0093C241.71 19.0093 240.678 19.2685 239.826 19.7868C238.974 20.3051 238.551 21.1337 238.556 22.2726C238.542 22.6664 238.626 23.0574 238.802 23.4101C238.997 23.7445 239.279 24.0198 239.618 24.2067C240.078 24.4686 240.569 24.6727 241.079 24.8145C241.669 24.9916 242.383 25.1809 243.222 25.3825C244.536 25.6864 245.68 25.9967 246.655 26.3134C247.511 26.5745 248.328 26.9507 249.083 27.4317C249.681 27.8125 250.176 28.3336 250.526 28.9498C250.86 29.607 251.022 30.3375 251 31.0742C251 32.9212 250.292 34.3882 248.875 35.4749C247.459 36.5617 245.549 37.1042 243.145 37.1022Z" fill="white"/>
</svg>
