<svg width="251" height="47" viewBox="0 0 251 47" fill="none" xmlns="http://www.w3.org/2000/svg">
<path d="M90.888 12.1796L89.8155 11.6839C89.9502 10.9413 89.9607 10.1815 89.8464 9.43554L91.0149 9.00624C91.4386 8.84973 91.7828 8.5313 91.9718 8.121C92.1608 7.71069 92.179 7.24213 92.0225 6.81839C91.866 6.39464 91.5476 6.05042 91.1373 5.86146C90.727 5.67249 90.2584 5.65426 89.8346 5.81077L88.5172 6.29613C88.1006 5.74734 87.6032 5.26485 87.0419 4.86511L87.6822 3.47834C87.7809 3.27493 87.838 3.05389 87.8503 2.82814C87.8626 2.60239 87.8297 2.37646 87.7536 2.16355C87.6776 1.95065 87.5598 1.75505 87.4073 1.58818C87.2547 1.42131 87.0705 1.28653 86.8652 1.1917C86.66 1.09688 86.4379 1.04392 86.212 1.03593C85.986 1.02793 85.7608 1.06505 85.5493 1.14513C85.3379 1.2252 85.1446 1.34662 84.9806 1.50229C84.8166 1.65796 84.6854 1.84475 84.5944 2.05174L83.8568 3.64652C83.2615 3.57829 82.6597 3.5892 82.0673 3.67898L81.4211 1.92191C81.2646 1.49797 80.9461 1.15357 80.5356 0.964463C80.1252 0.775359 79.6564 0.757047 79.2325 0.913555C78.8086 1.07006 78.4642 1.38857 78.2751 1.79901C78.0859 2.20945 78.0676 2.6782 78.2241 3.10214L78.9234 5.00674C78.4962 5.33281 78.109 5.70816 77.7698 6.125L75.8902 5.25606C75.4794 5.06668 75.0102 5.04827 74.5858 5.20486C74.1614 5.36146 73.8165 5.68024 73.6272 6.09107C73.4378 6.5019 73.4194 6.97114 73.576 7.39555C73.7326 7.81996 74.0513 8.16478 74.4622 8.35416L76.3417 9.22163C76.2445 9.75027 76.2108 10.2886 76.2414 10.8253L74.3338 11.5113C74.124 11.5888 73.9315 11.7068 73.7673 11.8587C73.6031 12.0106 73.4705 12.1933 73.3769 12.3965C73.2833 12.5997 73.2307 12.8193 73.222 13.0428C73.2133 13.2663 73.2487 13.4893 73.3262 13.6991C73.4037 13.9089 73.5218 14.1014 73.6736 14.2656C73.8255 14.4298 74.0083 14.5625 74.2114 14.656C74.4146 14.7496 74.6342 14.8022 74.8577 14.8109C75.0812 14.8196 75.3042 14.7842 75.514 14.7067L77.2682 14.062C77.5855 14.5704 77.9684 15.0346 78.4071 15.4429L77.6694 17.0406C77.4803 17.4503 77.4616 17.9183 77.6175 18.3418C77.7734 18.7652 78.0911 19.1094 78.5008 19.2986C78.9104 19.4877 79.3785 19.5064 79.8019 19.3505C80.2253 19.1946 80.5695 18.8769 80.7587 18.4672L81.4004 17.0805C82.0686 17.2526 82.7592 17.3208 83.4481 17.2826L83.9335 18.6C84.09 19.024 84.4085 19.3684 84.819 19.5575C85.2294 19.7466 85.6981 19.7649 86.1221 19.6084C86.546 19.4519 86.8904 19.1334 87.0795 18.7229C87.2686 18.3125 87.287 17.8437 87.1304 17.4198L86.7026 16.2528C87.3431 15.855 87.9129 15.3535 88.3889 14.7687L89.4629 15.2659C89.8737 15.4554 90.343 15.474 90.7676 15.3176C91.1921 15.1611 91.5371 14.8424 91.7267 14.4316C91.9163 14.0208 91.9349 13.5514 91.7784 13.1269C91.622 12.7024 91.3033 12.3573 90.8924 12.1678L90.888 12.1796ZM86.5551 12.0512C86.2251 12.7665 85.6903 13.3679 85.0185 13.7794C84.3467 14.1908 83.568 14.3938 82.7808 14.3626C81.9936 14.3315 81.2334 14.0677 80.5962 13.6045C79.9589 13.1413 79.4734 12.4995 79.2009 11.7604C78.9283 11.0212 78.8811 10.2179 79.0652 9.4519C79.2492 8.68592 79.6563 7.99171 80.2348 7.45705C80.8134 6.92239 81.5375 6.5713 82.3156 6.44817C83.0937 6.32503 83.8908 6.43539 84.6062 6.76528C85.0813 6.98435 85.5086 7.29487 85.8636 7.67909C86.2187 8.06331 86.4946 8.51371 86.6756 9.00457C86.8565 9.49543 86.939 10.0171 86.9184 10.5399C86.8977 11.0626 86.7743 11.5762 86.5551 12.0512Z" fill="#FFB600"/>
<path d="M27.4205 35.6485L27.3969 35.585C20.7994 37.9189 16.5034 34.66 14.9942 33.198C15.1649 32.8552 15.2538 32.4775 15.2538 32.0945C15.2556 31.5588 15.0859 31.0367 14.7695 30.6045C14.4531 30.1722 14.0066 29.8527 13.4954 29.6926C12.9842 29.5325 12.4352 29.5403 11.9288 29.7148C11.4223 29.8893 10.9851 30.2214 10.681 30.6624C10.377 31.1034 10.2221 31.6302 10.2391 32.1656C10.2561 32.701 10.4441 33.2168 10.7755 33.6377C11.1069 34.0585 11.5644 34.3622 12.0809 34.5042C12.5974 34.6462 13.1458 34.6191 13.6457 34.4269C14.053 34.8177 14.4841 35.1828 14.9366 35.5201L14.0131 36.0379C10.8221 35.0052 8.70207 32.7923 7.76821 31.6445C8.15385 31.2209 8.38203 30.6775 8.41447 30.1056C8.44691 29.5336 8.28163 28.9679 7.94637 28.5034C7.61111 28.0388 7.12627 27.7038 6.57322 27.5544C6.02017 27.405 5.43256 27.4504 4.90901 27.6829C4.38546 27.9155 3.95783 28.321 3.69789 28.8315C3.43794 29.342 3.3615 29.9264 3.48139 30.4866C3.60128 31.0468 3.91021 31.5487 4.35633 31.9081C4.80245 32.2675 5.35861 32.4625 5.93148 32.4604C5.97574 32.4604 6.02 32.4604 6.06426 32.4604C7.00844 33.7158 9.61675 36.693 13.8656 37.9189L14.2344 38.0266L16.6937 36.6443C18.6177 37.687 20.7723 38.2312 22.9607 38.2273C23.2056 38.2273 23.4579 38.2184 23.7116 38.2037C23.359 38.4072 23.0035 38.6005 22.6435 38.7864C21.2036 39.524 19.7136 40.1141 18.2324 40.4018C17.5155 40.5535 16.7828 40.6174 16.0505 40.5921C15.2753 40.5777 14.5025 40.5037 13.7387 40.3708C10.6389 39.8439 7.7504 38.4536 5.40481 36.3595C3.00894 34.2514 1.17812 31.4336 0.0406707 28.1157C-0.205702 31.6372 1.13386 35.3254 3.543 38.1594C6.01344 41.0613 9.42855 42.9984 13.1869 43.6298C14.123 43.7817 15.0697 43.8582 16.018 43.8584C17.0105 43.8494 17.9977 43.7125 18.9553 43.4512C20.7656 42.9375 22.4711 42.1085 23.9934 41.0023C25.4461 39.9645 26.7548 38.7387 27.8852 37.3568C27.9265 37.3436 27.9663 37.3318 28.0062 37.317L27.9796 37.2432C29.0933 35.8843 29.9959 34.3655 30.6573 32.7377C29.6339 33.768 28.5532 34.7398 27.4205 35.6485ZM12.7562 33.1833C12.5402 33.1833 12.3292 33.1192 12.1496 32.9993C11.9701 32.8793 11.8302 32.7088 11.7475 32.5093C11.6649 32.3098 11.6433 32.0903 11.6854 31.8786C11.7275 31.6668 11.8315 31.4723 11.9842 31.3196C12.1369 31.1669 12.3314 31.0629 12.5432 31.0208C12.7549 30.9787 12.9744 31.0003 13.1739 31.0829C13.3734 31.1656 13.5439 31.3055 13.6639 31.485C13.7838 31.6646 13.8479 31.8756 13.8479 32.0915C13.8475 32.381 13.7323 32.6584 13.5277 32.8631C13.323 33.0677 13.0456 33.1829 12.7562 33.1833ZM5.93148 31.047C5.71588 31.0462 5.50536 30.9815 5.32648 30.8611C5.14759 30.7408 5.00836 30.5701 4.92632 30.3707C4.84428 30.1713 4.82312 29.9521 4.8655 29.7407C4.90789 29.5293 5.01192 29.3352 5.16448 29.1829C5.31704 29.0305 5.51129 28.9267 5.72274 28.8846C5.9342 28.8425 6.15339 28.864 6.35267 28.9463C6.55194 29.0286 6.72239 29.1681 6.84251 29.3471C6.96263 29.5262 7.02704 29.7368 7.02762 29.9524C7.02762 30.0963 6.99926 30.2387 6.94415 30.3716C6.88905 30.5045 6.80829 30.6253 6.70648 30.7269C6.60468 30.8286 6.48382 30.9092 6.35084 30.9641C6.21786 31.0191 6.07536 31.0472 5.93148 31.047Z" fill="#111827"/>
<path d="M76.4913 23.9819L74.6442 24.0454C74.5197 22.9801 74.3005 21.9279 73.9892 20.9015L75.1178 20.4221C75.3901 20.3058 75.6368 20.1371 75.8439 19.9255C76.051 19.7139 76.2144 19.4636 76.3247 19.1888C76.4351 18.9141 76.4902 18.6203 76.4871 18.3243C76.4839 18.0282 76.4224 17.7357 76.3062 17.4634C76.1899 17.1911 76.0212 16.9443 75.8096 16.7373C75.598 16.5302 75.3477 16.3668 75.0729 16.2564C74.7982 16.1461 74.5044 16.0909 74.2084 16.0941C73.9123 16.0973 73.6198 16.1588 73.3475 16.275L72.1436 16.7884C71.6965 16.0551 71.1971 15.355 70.6492 14.6935L71.9769 13.2079C72.1789 12.9876 72.335 12.7294 72.4363 12.4482C72.5375 12.167 72.5818 11.8684 72.5666 11.57C72.5514 11.2715 72.477 10.979 72.3477 10.7095C72.2185 10.4401 72.0369 10.199 71.8136 10.0004C71.5903 9.80172 71.3298 9.64946 71.0471 9.55244C70.7644 9.45542 70.4652 9.41558 70.167 9.43524C69.8688 9.4549 69.5775 9.53366 69.31 9.66695C69.0425 9.80023 68.8041 9.98538 68.6089 10.2116L67.3681 11.6117C66.5655 11.0313 65.7163 10.5181 64.8292 10.0774L65.3072 8.38079C65.3955 8.09366 65.4256 7.79178 65.3956 7.49287C65.3657 7.19396 65.2763 6.90405 65.1327 6.64019C64.9891 6.37632 64.7942 6.14382 64.5594 5.95634C64.3247 5.76887 64.0549 5.6302 63.7658 5.54849C63.4767 5.46678 63.1742 5.44367 62.8761 5.48053C62.5779 5.51739 62.2902 5.61347 62.0297 5.76312C61.7692 5.91277 61.5413 6.11298 61.3593 6.35197C61.1772 6.59097 61.0448 6.86393 60.9698 7.15482L60.5597 8.6006C59.2874 8.33451 57.9897 8.20934 56.69 8.22736H56.6531L56.4687 7.5738C56.3419 7.15979 56.0579 6.81191 55.6778 6.60463C55.2976 6.39735 54.8514 6.34715 54.4346 6.46479C54.0179 6.58242 53.6638 6.85853 53.4481 7.23401C53.2324 7.60949 53.1723 8.05449 53.2806 8.47373L53.3677 8.77911L53.3338 8.78944C52.3012 9.11488 51.3035 9.54185 50.3552 10.0641C48.5131 11.0867 46.8469 12.3981 45.4203 13.9485C44.0158 15.4754 42.8223 17.2177 42.1127 19.143C43.5003 17.7312 45.0051 16.4397 46.6109 15.2822C48.1524 14.1587 49.7969 13.1836 51.5221 12.37C52.3501 11.9802 53.2093 11.6605 54.0906 11.414C54.9205 11.179 55.7804 11.0672 56.6428 11.082C59.3652 11.1466 62.0163 11.9657 64.3007 13.4481C66.5851 14.9304 68.4131 17.0179 69.5811 19.4779C70.537 21.4633 71.0224 23.6423 70.9996 25.8457C70.9768 28.0491 70.4464 30.2175 69.4496 32.1827C68.4528 34.1479 67.0164 35.8568 65.2521 37.1769C63.4877 38.4969 61.4428 39.3925 59.2762 39.794C58.4237 39.9519 57.5585 40.0304 56.6915 40.0286C55.9231 40.022 55.161 39.8889 54.4358 39.6347C52.8794 39.1169 51.3023 38.1875 49.8093 37.1046C48.2896 35.9794 46.8524 34.7469 45.5088 33.4164C44.1339 32.0812 42.815 30.662 41.5506 29.1912C40.9178 28.4535 40.2908 27.7159 39.6829 26.9532C39.0751 26.1904 38.4658 25.4144 37.9288 24.6768C36.7147 22.9699 35.3707 21.3043 33.9869 19.7154C32.5995 18.1065 31.1275 16.5725 29.5772 15.1199C28.0046 13.6395 26.312 12.2919 24.517 11.0909C22.6832 9.91066 20.668 8.83517 18.3282 8.37341C17.7358 8.26038 17.1343 8.20162 16.5313 8.19785H16.1698H16.0739L15.6741 8.21998C15.3791 8.23768 15.1062 8.26129 14.8273 8.29374C11.506 8.66167 8.36028 9.97617 5.76465 12.0808C4.0719 13.4559 2.65392 15.1382 1.58517 17.0392C1.06258 17.9812 0.658245 18.9842 0.381333 20.0252C0.0988666 21.0529 -0.0279401 22.1171 0.00513698 23.1823L0.248558 23.2236C0.633608 22.2544 1.02603 21.3249 1.47157 20.4324C1.91064 19.5488 2.40843 18.6957 2.96161 17.8787C4.04172 16.2575 5.41937 14.8559 7.02159 13.7479C8.5977 12.6578 10.3672 11.8782 12.2353 11.4509C13.156 11.2414 14.0946 11.1199 15.0383 11.0879C15.2729 11.0791 15.5133 11.0776 15.7332 11.0806L16.1049 11.0894H16.2008C16.2215 11.0905 16.2421 11.0905 16.2628 11.0894L16.4177 11.1012C16.8427 11.1381 17.2634 11.2136 17.6746 11.3269C18.7543 11.6364 19.7852 12.0958 20.7373 12.6916C19.1936 12.9131 17.7015 13.4071 16.3306 14.1506L13.8684 12.7683L13.4996 12.876C9.25075 14.1049 6.64245 17.0835 5.69826 18.3345C5.654 18.3345 5.60974 18.3272 5.56548 18.3272C4.98947 18.3248 4.4302 18.5208 3.98167 18.8822C3.53314 19.2436 3.22269 19.7484 3.10249 20.3118C2.98229 20.8751 3.05967 21.4627 3.32162 21.9757C3.58357 22.4887 4.01414 22.8959 4.54095 23.1288C5.06775 23.3618 5.6587 23.4063 6.21446 23.2549C6.77023 23.1035 7.25694 22.7654 7.5928 22.2975C7.92866 21.8295 8.0932 21.2602 8.05876 20.6852C8.02432 20.1102 7.79301 19.5646 7.40369 19.14C8.3405 17.9849 10.4575 15.7838 13.6486 14.7466L14.5721 15.2659C14.1196 15.6028 13.6885 15.9674 13.2812 16.3577C12.7355 16.148 12.1336 16.1356 11.5797 16.3225C11.0258 16.5095 10.5546 16.8841 10.2475 17.3816C9.94046 17.8792 9.81688 18.4683 9.89811 19.0473C9.97934 19.6262 10.2603 20.1586 10.6924 20.5524C11.1245 20.9463 11.6806 21.1767 12.2646 21.204C12.8486 21.2314 13.4238 21.0538 13.8908 20.702C14.3577 20.3503 14.6872 19.8464 14.8221 19.2775C14.957 18.7087 14.8889 18.1106 14.6296 17.5866C15.7572 16.4947 17.0987 15.6481 18.5696 15.1002C20.0404 14.5522 21.6088 14.3148 23.176 14.4029C24.4915 15.4638 25.7336 16.6127 26.8937 17.8418C29.6301 20.7515 32.115 23.8879 34.3218 27.2172C34.9487 28.1024 35.5521 28.902 36.1895 29.7252C36.8268 30.5484 37.4685 31.3348 38.1383 32.1167C39.4661 33.6805 40.872 35.2 42.3591 36.6546C43.8654 38.1313 45.4762 39.4975 47.1789 40.7426C48.9227 41.9893 50.8228 43.1385 53.08 43.8585C53.1966 43.8953 53.3175 43.9307 53.437 43.9647L53.2733 44.5371C53.1675 44.9555 53.2292 45.3987 53.4453 45.7724C53.6613 46.146 54.0147 46.4206 54.4301 46.5377C54.8455 46.6547 55.2903 46.6051 55.6696 46.3992C56.049 46.1934 56.3331 45.8476 56.4614 45.4355L56.7461 44.4102C57.8683 44.3946 58.9868 44.2766 60.0876 44.0576C60.2765 44.0207 60.4668 43.975 60.6526 43.9322L60.9595 45.0165C61.0399 45.3013 61.1756 45.5675 61.3589 45.7999C61.5421 46.0322 61.7694 46.2262 62.0276 46.3707C62.2859 46.5152 62.57 46.6075 62.8639 46.6422C63.1578 46.6769 63.4556 46.6534 63.7404 46.573C64.0252 46.4926 64.2914 46.3569 64.5237 46.1736C64.7561 45.9903 64.9501 45.7631 65.0946 45.5049C65.2391 45.2466 65.3314 44.9625 65.3661 44.6686C65.4008 44.3747 65.3772 44.0769 65.2968 43.7921L64.897 42.3743C65.3947 42.1166 65.8791 41.8358 66.3502 41.5319C66.6674 41.3298 66.9728 41.1144 67.2767 40.8946L68.6044 42.3861C69.0069 42.811 69.5589 43.0627 70.1437 43.088C70.7284 43.1133 71.3 42.9101 71.7377 42.5215C72.1754 42.1329 72.4447 41.5893 72.4888 41.0057C72.5329 40.4221 72.3483 39.8442 71.974 39.3942L70.6271 37.8821L70.27 38.1579C71.0232 37.295 71.6953 36.3646 72.2779 35.3785L73.3489 35.8358C73.6212 35.9521 73.9138 36.0136 74.2098 36.0168C74.5059 36.0199 74.7997 35.9648 75.0744 35.8544C75.3491 35.7441 75.5994 35.5807 75.8111 35.3736C76.0227 35.1665 76.1914 34.9198 76.3076 34.6475C76.4239 34.3752 76.4853 34.0827 76.4885 33.7866C76.4917 33.4906 76.4366 33.1968 76.3262 32.922C76.2159 32.6473 76.0525 32.397 75.8454 32.1854C75.6383 31.9738 75.3916 31.8051 75.1193 31.6888L74.0659 31.2462C74.0969 31.1326 74.1338 31.019 74.1648 30.904C74.3716 30.134 74.5253 29.3507 74.6251 28.5597L76.6462 28.4919C76.9451 28.4867 77.24 28.4221 77.5137 28.3019C77.7875 28.1817 78.0345 28.0082 78.2406 27.7916C78.4466 27.575 78.6075 27.3195 78.7139 27.0401C78.8202 26.7608 78.87 26.463 78.8602 26.1642C78.8504 25.8654 78.7813 25.5715 78.6569 25.2997C78.5324 25.0279 78.3552 24.7835 78.1354 24.5808C77.9156 24.3782 77.6578 24.2212 77.3768 24.1192C77.0958 24.0171 76.7973 23.972 76.4987 23.9864L76.4913 23.9819ZM5.56548 21.9165C5.34915 21.9168 5.13759 21.8529 4.95759 21.7329C4.77759 21.6129 4.63725 21.4422 4.55432 21.2424C4.4714 21.0426 4.44963 20.8226 4.49176 20.6104C4.53389 20.3982 4.63804 20.2033 4.79101 20.0503C4.94399 19.8974 5.13891 19.7932 5.3511 19.7511C5.5633 19.709 5.78322 19.7307 5.98304 19.8137C6.18285 19.8966 6.35357 20.0369 6.47358 20.2169C6.59358 20.3969 6.65749 20.6085 6.6572 20.8248C6.65739 20.9684 6.62931 21.1106 6.57455 21.2433C6.51979 21.376 6.43943 21.4966 6.33805 21.5982C6.23668 21.6999 6.11627 21.7806 5.98372 21.8357C5.85116 21.8908 5.70904 21.9193 5.56548 21.9195V21.9165ZM12.3902 19.7788C12.1742 19.7788 11.9632 19.7148 11.7836 19.5949C11.6041 19.4749 11.4642 19.3044 11.3815 19.1049C11.2989 18.9054 11.2773 18.6859 11.3194 18.4741C11.3615 18.2624 11.4655 18.0679 11.6182 17.9152C11.7709 17.7625 11.9654 17.6585 12.1772 17.6164C12.3889 17.5743 12.6084 17.5959 12.8079 17.6785C13.0074 17.7612 13.1779 17.9011 13.2979 18.0806C13.4178 18.2601 13.4819 18.4712 13.4819 18.6871C13.4821 18.8307 13.454 18.9729 13.3992 19.1056C13.3445 19.2383 13.2641 19.3589 13.1627 19.4606C13.0613 19.5622 12.9409 19.6429 12.8084 19.698C12.6758 19.7531 12.5337 19.7816 12.3902 19.7818V19.7788Z" fill="#111827"/>
<path d="M104.398 37.5267V10.588H107.812V37.5267H104.398Z" fill="#FFB600"/>
<path d="M124.433 37.7156C122.639 37.7392 120.866 37.3431 119.253 36.5589C117.728 35.8104 116.367 34.7652 115.25 33.4844C114.129 32.1943 113.254 30.7091 112.67 29.1028C112.069 27.4881 111.761 25.779 111.76 24.0559C111.754 22.2891 112.082 20.5371 112.728 18.8924C113.351 17.2894 114.259 15.8128 115.41 14.5344C116.544 13.2719 117.918 12.2466 119.451 11.5174C121.032 10.7663 122.764 10.3839 124.515 10.3992C126.308 10.374 128.08 10.784 129.679 11.5941C131.196 12.3712 132.548 13.4343 133.662 14.7247C135.899 17.3362 137.136 20.6572 137.152 24.0957C137.159 25.8626 136.831 27.6147 136.185 29.2592C135.569 30.856 134.67 32.328 133.529 33.6039C132.4 34.8589 131.033 35.8777 129.508 36.6017C127.922 37.3536 126.187 37.7345 124.433 37.7156ZM115.212 24.0574C115.209 25.4071 115.434 26.7477 115.876 28.0229C116.294 29.257 116.93 30.4062 117.754 31.4161C118.553 32.3976 119.548 33.2016 120.675 33.7765C121.852 34.3674 123.153 34.6665 124.469 34.6484C125.817 34.6722 127.149 34.3524 128.339 33.719C129.461 33.1141 130.449 32.288 131.242 31.2907C132.047 30.2773 132.663 29.1281 133.063 27.8975C133.912 25.3657 133.899 22.6243 133.026 20.1006C132.608 18.8675 131.964 17.7226 131.129 16.7237C130.319 15.7607 129.326 14.9675 128.208 14.3898C127.022 13.8097 125.719 13.5113 124.399 13.5179C123.08 13.5246 121.779 13.8361 120.6 14.4282C119.481 15.0182 118.493 15.8299 117.698 16.8137C116.888 17.8206 116.264 18.9629 115.852 20.1877C115.428 21.4336 115.211 22.741 115.212 24.0574Z" fill="#FFB600"/>
<path d="M164.421 37.5267V16.6972L155.466 32.6701H153.532L144.533 16.6972V37.5267H141.125V10.588H144.729L154.481 28.079L164.269 10.588H167.835V37.5267H164.421Z" fill="#111827"/>
<path d="M181.417 37.9103C180.009 37.9276 178.613 37.6497 177.318 37.0945C176.119 36.579 175.035 35.8263 174.133 34.8815C173.239 33.9314 172.537 32.8166 172.068 31.599C171.573 30.3364 171.323 28.9911 171.33 27.6349C171.321 26.2844 171.572 24.9447 172.068 23.6885C172.545 22.4752 173.254 21.3666 174.155 20.4252C175.067 19.4828 176.156 18.7306 177.36 18.2123C178.654 17.657 180.05 17.3791 181.458 17.3964C183.453 17.3606 185.41 17.9456 187.058 19.0704C188.706 20.1952 189.964 21.8044 190.658 23.6753C191.124 24.8926 191.362 26.1853 191.36 27.4889C191.36 27.7677 191.36 28.02 191.341 28.2472C191.333 28.4252 191.314 28.6025 191.285 28.7783H174.853C174.915 29.7103 175.147 30.6233 175.536 31.4721C175.895 32.2532 176.395 32.9611 177.012 33.5597C177.611 34.1369 178.311 34.5994 179.077 34.9243C179.854 35.2492 180.689 35.4119 181.53 35.4023C182.134 35.4028 182.734 35.3194 183.314 35.1545C183.881 34.996 184.429 34.7738 184.946 34.4921C185.444 34.2171 185.898 33.869 186.293 33.4594C186.675 33.0665 186.975 32.6023 187.178 32.0932L190.062 32.8899C189.728 33.6306 189.273 34.3103 188.715 34.9007C188.135 35.5169 187.471 36.0474 186.741 36.4763C185.963 36.9325 185.127 37.2833 184.257 37.5193C183.332 37.7774 182.377 37.9089 181.417 37.9103ZM188.203 26.2998C188.135 25.3973 187.897 24.5157 187.501 23.7018C187.136 22.9413 186.636 22.2534 186.026 21.6718C185.087 20.8113 183.925 20.2322 182.673 20.0008C181.421 19.7694 180.128 19.895 178.944 20.3632C178.177 20.6691 177.476 21.1199 176.879 21.691C176.276 22.2719 175.787 22.9604 175.438 23.721C175.063 24.5336 174.838 25.4072 174.774 26.2998H188.203Z" fill="#111827"/>
<path d="M192.988 27.5833C192.98 26.2345 193.225 24.896 193.708 23.6369C194.168 22.4291 194.865 21.3256 195.758 20.3913C196.659 19.4576 197.735 18.7102 198.925 18.1917C200.224 17.6346 201.626 17.3581 203.04 17.3803C205.013 17.3803 206.714 17.8165 208.143 18.6888C209.538 19.5245 210.664 20.7425 211.388 22.1985L208.126 23.2224C207.641 22.3078 206.904 21.5512 206.002 21.0419C205.076 20.5188 204.029 20.2501 202.966 20.263C202.084 20.2596 201.212 20.4441 200.408 20.804C199.603 21.1639 198.884 21.6911 198.3 22.3505C197.703 23.0329 197.234 23.8169 196.914 24.6652C196.225 26.5528 196.232 28.6243 196.933 30.5073C197.263 31.3759 197.744 32.1787 198.356 32.8781C198.937 33.5395 199.648 34.0756 200.443 34.4537C201.243 34.8338 202.119 35.0285 203.004 35.0232C203.588 35.0228 204.17 34.9393 204.73 34.7753C205.275 34.6221 205.798 34.3989 206.285 34.1115C206.738 33.8462 207.153 33.5206 207.519 33.1437C207.855 32.8055 208.114 32.3983 208.278 31.9502L211.54 32.9357C211.234 33.6737 210.804 34.3538 210.268 34.9465C209.714 35.5618 209.067 36.087 208.351 36.5029C206.748 37.4283 204.93 37.9138 203.079 37.9103C201.719 37.9268 200.37 37.6624 199.117 37.1337C197.864 36.6049 196.733 35.8231 195.796 34.8373C194.902 33.8871 194.2 32.7723 193.731 31.5548C193.234 30.29 192.982 28.9422 192.988 27.5833Z" fill="#111827"/>
<path d="M231.765 37.5267H228.426V26.4473C228.426 24.3996 228.072 22.8752 227.364 21.8739C226.656 20.8727 225.618 20.3731 224.251 20.3751C223.574 20.3795 222.904 20.5153 222.279 20.7749C221.616 21.0433 220.996 21.4077 220.439 21.8562C219.858 22.3218 219.347 22.8683 218.921 23.4791C218.476 24.1165 218.137 24.8214 217.916 25.5666V37.5164H214.576V9.82971H217.916V21.9772C218.653 20.5838 219.754 19.4166 221.103 18.6003C222.429 17.7948 223.952 17.3744 225.504 17.3861C226.668 17.3861 227.655 17.601 228.463 18.0308C229.245 18.4345 229.911 19.0311 230.399 19.7643C230.907 20.5704 231.261 21.4645 231.442 22.4006C231.662 23.4807 231.771 24.5807 231.765 25.6831V37.5267Z" fill="#111827"/>
<path d="M243.145 37.9104C241.551 37.9096 239.966 37.6607 238.448 37.1728C236.993 36.726 235.639 35.9976 234.465 35.0292L235.908 32.7897C236.969 33.6187 238.145 34.2896 239.398 34.7813C240.574 35.2263 241.821 35.4514 243.078 35.4452C244.518 35.4452 245.663 35.161 246.511 34.5925C246.915 34.3371 247.245 33.9802 247.468 33.5575C247.691 33.1348 247.799 32.661 247.782 32.1834C247.795 31.7474 247.676 31.3176 247.441 30.95C247.173 30.5768 246.819 30.2733 246.409 30.0649C245.854 29.7731 245.269 29.5445 244.663 29.3833C243.955 29.1817 243.134 28.9663 242.198 28.7371C241.009 28.4342 239.984 28.1435 239.124 27.8652C238.373 27.6377 237.658 27.3055 236.999 26.8782C236.479 26.5403 236.06 26.0684 235.785 25.5121C235.514 24.8909 235.385 24.2171 235.406 23.5397C235.39 22.6264 235.592 21.7226 235.996 20.9033C236.378 20.1432 236.93 19.4809 237.609 18.9678C238.332 18.4283 239.148 18.028 240.018 17.7875C240.987 17.5157 241.989 17.3816 242.995 17.3892C244.418 17.3774 245.833 17.6213 247.17 18.1091C248.365 18.535 249.471 19.1782 250.432 20.0064L248.915 22.0187C248.096 21.2931 247.144 20.7326 246.112 20.3678C245.089 20.0033 244.01 19.8172 242.924 19.8175C241.71 19.8175 240.678 20.0767 239.826 20.595C238.974 21.1133 238.551 21.9419 238.556 23.0809C238.542 23.4746 238.626 23.8657 238.802 24.2183C238.997 24.5527 239.279 24.8281 239.618 25.015C240.078 25.2768 240.569 25.4809 241.079 25.6228C241.669 25.7998 242.383 25.9891 243.222 26.1908C244.536 26.4947 245.68 26.805 246.655 27.1217C247.511 27.3827 248.328 27.7589 249.083 28.2399C249.681 28.6207 250.176 29.1419 250.526 29.758C250.86 30.4153 251.022 31.1458 251 31.8824C251 33.7295 250.292 35.1964 248.875 36.2832C247.459 37.37 245.549 37.9124 243.145 37.9104Z" fill="#111827"/>
</svg>
